<svg width="14" height="14" viewBox="0 0 14 14" fill="none" xmlns="http://www.w3.org/2000/svg">
<path id="Vector" d="M0.227926 12.6716L7.0673 5.83316L2.56119 1.32802C2.45229 1.21924 2.37812 1.08061 2.34806 0.929659C2.318 0.778708 2.3334 0.622232 2.39232 0.48004C2.45124 0.33785 2.55102 0.216337 2.67903 0.130885C2.80705 0.045433 2.95754 -0.000117314 3.11145 3.81646e-06L13.2222 4.70038e-06C13.4285 4.71841e-06 13.6263 0.0819454 13.7722 0.227802C13.9181 0.373659 14 0.571485 14 0.777758L14 10.8886C14.0001 11.0425 13.9546 11.193 13.8691 11.321C13.7837 11.449 13.6622 11.5488 13.52 11.6077C13.3778 11.6666 13.2213 11.682 13.0703 11.6519C12.9194 11.6219 12.7808 11.5477 12.672 11.4388L8.16685 6.9327L1.32845 13.7721C1.25619 13.8443 1.1704 13.9017 1.07599 13.9408C0.981572 13.9799 0.88038 14 0.778187 14C0.675994 14 0.574801 13.9799 0.480388 13.9408C0.385974 13.9017 0.300187 13.8443 0.227926 13.7721C0.155664 13.6998 0.0983448 13.614 0.0592375 13.5196C0.0201293 13.4252 5.90972e-08 13.324 6.80312e-08 13.2218C7.69652e-08 13.1196 0.0201293 13.0184 0.0592376 12.924C0.0983449 12.8296 0.155665 12.7438 0.227926 12.6716Z" fill="white" fill-opacity="0.62"/>
</svg>
