<svg width="18" height="17" viewBox="0 0 18 17" fill="none" xmlns="http://www.w3.org/2000/svg">
<g id="Vector">
<path d="M3.08876 0H14.6982V17H12.9941V9.2129H12.9774C12.789 7.06073 11.0325 5.37419 8.89349 5.37419C6.75446 5.37419 4.99796 7.06073 4.80962 9.2129H4.7929V17H3.08876V0Z" fill="white"/>
<path d="M0 2.4129L0.692308 4.82581H1.27811V14.5871C0.98399 14.5871 0.745562 14.8326 0.745562 15.1355V15.7935H0.639053C0.344937 15.7935 0.106509 16.0391 0.106509 16.3419V17H6.07101V16.3419C6.07101 16.0391 5.83258 15.7935 5.53846 15.7935H5.43195V15.1355C5.43195 14.8326 5.19352 14.5871 4.89941 14.5871H4.26035V2.4129H0Z" fill="white"/>
<path d="M13.1006 14.5871C12.8065 14.5871 12.568 14.8326 12.568 15.1355V15.7935H12.4615C12.1674 15.7935 11.929 16.0391 11.929 16.3419V17H17.8935V16.3419C17.8935 16.0391 17.6551 15.7935 17.3609 15.7935H17.2544V15.1355C17.2544 14.8326 17.016 14.5871 16.7219 14.5871V4.82581H17.3077L18 2.4129H13.7396V14.5871H13.1006Z" fill="white"/>
</g>
</svg>
