<svg width="56" height="56" viewBox="0 0 56 56" fill="none" xmlns="http://www.w3.org/2000/svg">
<g id="Layer_1" clip-path="url(#clip0_1_157)">
<path id="Vector" d="M28 0C12.5366 0 0 12.5366 0 28C0 43.4634 12.5366 56 28 56C43.4634 56 56 43.4656 56 28C56 12.5344 43.4656 0 28 0Z" fill="#1DB954"/>
<path id="Vector_2" d="M13.44 30.1918C13.8644 30.0649 14.2953 29.9468 14.7306 29.8374C14.3194 29.9971 13.8884 30.1174 13.44 30.1918Z" fill="#00FF79"/>
<path id="Vector_3" d="M12.4666 30.2903C12.7969 30.2838 13.1228 30.2466 13.44 30.1897C13.4137 30.1963 13.3897 30.2072 13.3634 30.2138C13.0616 30.3034 12.7575 30.3275 12.4666 30.2903Z" fill="#FDFFFE"/>
<path id="Vector_4" d="M47.2325 20.3174C43.2469 17.9505 38.3687 16.4061 33.3134 15.5727C32.725 15.4546 32.1497 15.354 31.5941 15.2708C31.2462 15.2183 30.9728 14.9471 30.9028 14.6015C30.5397 12.8099 30.0519 11.0905 29.4306 9.46959C28.9122 8.11553 27.3984 7.44396 26.0466 7.9624C24.6947 8.47646 24.0209 9.99896 24.5416 11.3465C24.8566 12.1668 25.13 13.0177 25.3662 13.8993C25.4909 14.3674 25.1344 14.8224 24.6509 14.8158C19.7378 14.7502 15.0434 15.3015 11.2219 16.3646C7.83125 16.8524 5.22594 19.7683 5.22594 23.2924C5.22594 27.1599 8.36281 30.2968 12.2303 30.2968C12.3069 30.2968 12.3878 30.2968 12.4644 30.2902C12.7947 30.2837 13.1206 30.2465 13.4378 30.1896C13.8622 30.0627 14.2931 29.9446 14.7284 29.8352C17.6028 29.1133 20.7025 28.7852 23.8197 28.829C24.5328 28.8465 25.3903 28.9099 26.2544 28.993C28.4506 29.2074 30.6775 29.5421 30.6775 29.5421C30.9313 29.5924 31.185 29.6427 31.4387 29.6952C33.1406 30.0605 34.7922 30.5352 36.3628 31.1193C37.8678 31.6815 39.2984 32.3399 40.6153 33.0946C40.9128 33.2652 41.8666 33.7377 42.0437 33.8602C42.7197 34.324 43.2294 35.0568 43.1397 35.9602C43.0194 37.1699 41.7747 38.3665 40.5169 37.9618C40.2697 37.883 40.0378 37.7605 39.8059 37.6402C38.2484 36.833 36.6669 36.063 35.0153 35.4658C34.9081 35.4265 34.8009 35.3783 34.6894 35.3499C33.4228 34.908 32.1147 34.5471 30.7672 34.2736C30.7475 34.2671 30.73 34.2627 30.7103 34.2605C29.6362 34.009 27.2256 33.8099 25.5522 33.6961C24.5328 33.6218 23.7825 33.5824 23.7825 33.5824C20.405 33.5715 16.8284 34.0002 13.0594 34.8599C12.1187 35.0743 11.5303 36.0105 11.7491 36.949C11.9634 37.8896 12.8997 38.478 13.8381 38.2636C17.4322 37.4455 20.8228 37.0496 24.0122 37.0802C24.395 37.0736 24.6772 37.439 24.5744 37.8065C23.9225 40.0968 23.135 42.188 22.2512 43.9555C21.6059 45.2505 22.1266 46.8233 23.4216 47.4687C24.7166 48.114 26.2872 47.5933 26.9347 46.2983C28.0241 44.1174 28.9822 41.5449 29.7478 38.7383C29.9031 38.174 30.4631 37.8174 31.0406 37.918C33.1603 38.4299 35.1575 39.178 37.0322 40.169C37.3756 40.4402 37.7584 40.6808 38.1697 40.8777C41.23 42.3521 44.9072 41.068 46.3816 38.0099C47.8122 35.0436 46.6528 31.4955 43.7937 29.938C43.7172 29.8746 43.6341 29.8111 43.5422 29.7565C40.1012 27.6433 36.0303 26.1362 31.7362 25.2787C31.5022 25.2327 31.2638 25.189 31.0297 25.1452C29.75 24.874 27.9497 24.6968 26.5191 24.5896C25.1912 24.4933 24.1784 24.4562 24.1784 24.4562C22.4766 24.419 20.7703 24.4868 19.0925 24.6574C18.0469 24.7624 17.0056 24.909 15.9731 25.0971C15.2053 25.2371 14.4572 25.4405 13.7025 25.6462C13.2125 25.7796 12.7116 25.8933 12.2019 25.9043C11.7206 25.9152 11.2897 25.7643 10.9091 25.4602C10.3775 25.038 10.0625 24.3862 10.0625 23.708C10.0625 23.2661 10.1959 22.8243 10.4387 22.4546C10.9353 21.6999 11.9044 21.5402 12.7269 21.3411C13.5209 21.1486 14.3194 20.9758 15.1222 20.8227C15.5181 20.7462 15.9141 20.6762 16.31 20.6105C19.1625 20.1358 22.0084 20.1052 24.8894 20.0505C25.41 20.0396 25.9131 20.0396 26.3878 20.0505C29.1987 20.1118 31.1456 20.4858 31.6662 20.5952C31.7603 20.6149 31.8062 20.6258 31.8062 20.6258C36.4744 21.328 40.9784 22.6887 44.555 24.8149C45.7953 25.5543 47.4075 25.143 48.1425 23.8983C48.8819 22.6537 48.4728 21.0502 47.2259 20.3108L47.2325 20.3174Z" fill="#141414"/>
</g>
<defs>
<clipPath id="clip0_1_157">
<rect width="56" height="56" fill="white"/>
</clipPath>
</defs>
</svg>
