<svg width="512" height="490" viewBox="0 0 512 490" fill="none" xmlns="http://www.w3.org/2000/svg">
<rect width="512" height="490" fill="#34C057"/>
<rect x="56.8901" y="56.8899" width="56.8889" height="56.89" rx="28.4444" fill="#101010"/>
<rect x="170.779" y="56.8899" width="56.8889" height="56.89" rx="28.4444" fill="#101010"/>
<rect x="284.668" y="56.8899" width="56.8889" height="56.89" rx="28.4444" fill="#101010"/>
<rect x="398.557" y="56.8899" width="56.8889" height="56.89" rx="28.4444" fill="#101010"/>
<rect x="56.8901" y="170.78" width="56.8889" height="56.89" rx="28.4444" fill="#101010"/>
<rect x="170.779" y="170.78" width="56.8889" height="56.89" rx="28.4444" fill="#101010"/>
<rect x="284.668" y="170.78" width="56.8889" height="56.89" rx="28.4444" fill="#101010"/>
<rect x="398.557" y="170.78" width="56.8889" height="56.89" rx="28.4444" fill="#101010"/>
<rect x="56.8901" y="284.67" width="56.8889" height="56.89" rx="28.4444" fill="#101010"/>
<rect x="170.779" y="284.67" width="56.8889" height="56.89" rx="28.4444" fill="#101010"/>
<rect x="284.668" y="284.67" width="56.8889" height="56.89" rx="28.4444" fill="#101010"/>
<rect x="398.557" y="284.67" width="56.8889" height="56.89" rx="28.4444" fill="#101010"/>
<rect x="56.8901" y="398.56" width="56.8889" height="56.89" rx="28.4444" fill="#101010"/>
<rect x="170.779" y="398.56" width="56.8889" height="56.89" rx="28.4444" fill="#101010"/>
<rect x="284.668" y="398.56" width="56.8889" height="56.89" rx="28.4444" fill="#101010"/>
<rect x="398.557" y="398.56" width="56.8889" height="56.89" rx="28.4444" fill="#101010"/>
<path d="M357.873 255.972C411.729 254.705 455 210.431 455 156C455 100.772 410.452 56 355.5 56C301.341 56 257.288 99.4883 256.028 153.615L256 256L357.873 255.972Z" fill="#F5BD33"/>
<path d="M256.028 357.873C257.295 411.729 301.569 455 356 455C411.228 455 456 410.452 456 355.5C456 301.341 412.512 257.288 358.385 256.028L256 256L256.028 357.873Z" fill="#F5BD33"/>
<path d="M154.127 256.028C100.271 257.295 57 301.569 57 356C57 411.228 101.548 456 156.5 456C210.659 456 254.712 412.512 255.972 358.385L256 256L154.127 256.028Z" fill="#F5BD33"/>
<path d="M255.972 154.127C254.705 100.271 210.431 57 156 57C100.772 57 56 101.548 56 156.5C56 210.659 99.4883 254.712 153.615 255.972L256 256L255.972 154.127Z" fill="#F5BD33"/>
<path d="M105 94C202.258 131.05 309.742 131.05 407 94C362.161 189.674 362.161 300.326 407 396C308.947 363.561 203.053 363.561 105 396C147.432 299.805 147.432 190.195 105 94Z" fill="#ECF551"/>
<path d="M57 256C166.905 256 256 166.905 256 57C256 166.905 345.095 256 455 256C345.095 256 256 345.095 256 455C256 345.095 166.905 256 57 256Z" fill="#E55733"/>
</svg>
